<svg version="1.1" xmlns="http://www.w3.org/2000/svg" xmlns:xlink="http://www.w3.org/1999/xlink" x="0px" y="0px" viewBox="0 0 1920 1080" style="enable-background:new 0 0 1920 1080;" xml:space="preserve">
  <style type="text/css">
    .st0{fill:#FFFFFF;}
    .st1{display:none;}
    .st2{display:inline;fill:#000100;}
  </style>
  <g>
    <g id="Lager_1">
      <g>
        <path class="st0" d="M1097.8,288.5c-63-74.1-174.1-83.1-248.2-20.1c-74.1,63-83.1,174.1-20.1,248.2
          c63,74.1,174.1,83.1,248.2,20.1C1151.8,473.7,1160.8,362.6,1097.8,288.5z M860.8,281.4c60.4-51.4,148.5-49.6,206.8,0.8
          l-254.7,70.5C821.6,325.9,837.7,301,860.8,281.4z M842.6,505.4c-29.7-34.9-41.6-79-36.7-121.3l85.7,43.8l13.9-11.8l-86.9-44.4
          c0.2-1.4,0.2-1.5,0.4-2.9l246.9-68.4l1.9,2.3L909.7,437.2l46.7,124C913.9,559.2,872.3,540.3,842.6,505.4z M970.8,550.6
          L930,442.4l149-126.6l1.9,2.3L973.6,550.7C972.3,550.7,972.2,550.7,970.8,550.6z M1066.6,523.6c-23.1,19.6-50.2,31.5-78.1,35.8
          l110.6-240C1139.5,385,1127.1,472.2,1066.6,523.6z"/>
        <g>
          <g>
            <polygon class="st0" points="802.3,853.5 802.3,679.3 938.2,679.3 938.2,699.6 827.8,699.6 823.7,703.6 823.7,757.9 
              827.8,762 917,762 917,780.7 827.8,780.7 823.7,784.7 823.7,853.5"/>
            <polygon class="st0" points="727.5,853.5 704.5,801.3 635.6,801.3 644,782.6 696.2,782.6 662.6,708.2 656.6,708.2 
              591.8,853.5 569.8,853.5 650,679.3 670.8,679.3 750.9,853.5"/>
            <path class="st0" d="M1133.5,853.5l-49.8-72.8h-48.1V762h60.9c19.2,0,34.3-14.1,34.3-32.1c0-7.7-3-15.1-8.5-20.9
              c-9.7-9.7-21.4-11-31.6-11h-69.7l-4,4v151.5h-21.4V679.3h95.1c21.3,0,37.1,5.7,48.2,17.3c8.6,9.1,13.1,20.7,13.1,33.5
              c0,22.7-15.3,41-39.9,47.7c-0.6,0.2-2.1,0.6-4.6,1.1l-1.4,0.3l51.8,74.3H1133.5z"/>
            <polygon class="st0" points="1263.9,853.5 1263.9,782.4 1191.6,679.3 1216.2,679.3 1272.2,760 1277.2,760 1333,679.3 
              1357.6,679.3 1285.3,782.4 1285.3,853.5"/>
          </g>
        </g>
      </g>
    </g>
  </g>
</svg>